<svg xmlns="http://www.w3.org/2000/svg" width="189" viewBox="0 0 189 189" height="189" version="1.0"><defs><clipPath id="a"><path d="M 0.496094 0 L 188.5 0 L 188.5 188.003906 L 0.496094 188.003906 Z M 0.496094 0"/></clipPath><clipPath id="b"><path d="M 6.972656 8.238281 L 182.292969 8.238281 L 182.292969 183.5625 L 6.972656 183.5625 Z M 6.972656 8.238281"/></clipPath></defs><g clip-path="url(#a)"><path fill="#FFF" d="M 0.496094 0 L 188.503906 0 L 188.503906 195.464844 L 0.496094 195.464844 Z M 0.496094 0"/><path fill="#FFF" d="M 0.496094 0 L 188.503906 0 L 188.503906 188.003906 L 0.496094 188.003906 Z M 0.496094 0"/><path fill="#377" d="M 0.496094 0 L 188.503906 0 L 188.503906 188.003906 L 0.496094 188.003906 Z M 0.496094 0"/></g><g clip-path="url(#b)"><path fill="#494547" d="M 94.632812 8.238281 C 46.082031 8.238281 6.972656 47.351562 6.972656 95.902344 C 6.972656 144.453125 46.082031 183.5625 94.632812 183.5625 C 143.183594 183.5625 182.292969 144.453125 182.292969 95.902344 C 182.292969 47.351562 143.183594 8.238281 94.632812 8.238281 Z M 94.632812 8.238281"/></g><path fill="#FFF" d="M 141.835938 95.5625 L 94.632812 54.09375 L 47.769531 95.5625 L 47.769531 154.902344 C 47.769531 156.589844 49.117188 157.601562 50.464844 157.601562 L 79.796875 157.601562 L 79.796875 131.640625 C 79.796875 129.953125 81.144531 128.941406 82.496094 128.941406 L 106.769531 128.941406 C 108.457031 128.941406 109.46875 130.289062 109.46875 131.640625 L 109.46875 157.601562 L 138.800781 157.601562 C 140.484375 157.601562 141.496094 156.253906 141.496094 154.902344 Z M 141.835938 95.5625"/><path fill="#FFF" d="M 141.835938 72.636719 L 141.835938 48.699219 L 124.640625 48.699219 L 124.976562 57.800781 L 94.96875 31.167969 L 94.632812 31.503906 L 94.296875 31.167969 L 27.875 90.507812 L 34.617188 98.261719 L 94.632812 45.328125 L 154.648438 98.261719 L 161.726562 90.507812 Z M 141.835938 72.636719"/></svg>